<svg width="18" height="24" viewBox="0 0 18 24" fill="none" xmlns="http://www.w3.org/2000/svg">
<path fill-rule="evenodd" clip-rule="evenodd" d="M17.9191 8.95953C17.9191 9.23691 17.9065 9.51136 17.8818 9.78231L17.9189 9.7956C17.8902 10.0562 17.8328 10.3733 17.742 10.7409C17.5962 11.4632 17.3637 12.154 17.0556 12.802C15.9132 15.6176 13.519 19.6864 9.05226 24.0009C6.85464 22.0131 2.88591 17.5825 1.03169 13.1374C0.372948 11.89 0 10.4683 0 8.95953C0 4.01132 4.01132 0 8.95953 0C13.9077 0 17.9191 4.01132 17.9191 8.95953ZM9.09794 13.276C11.4054 13.276 13.276 11.4054 13.276 9.09794C13.276 6.79048 11.4054 4.91992 9.09794 4.91992C6.79048 4.91992 4.91992 6.79048 4.91992 9.09794C4.91992 11.4054 6.79048 13.276 9.09794 13.276Z" fill="#FFC11E"/>
</svg>
